# xmcd
#
# Track frame offsets:
#	150
#	18142
#	32717
#	43425
#	64585
#	79038
#	99950
#	115589
#	137935
#	151886
#	167318
#	181091
#	194709
#	208051
#	222537
#	235059
#	256397
#	274351
#	297166
#
# Disc length: 4253 seconds
#
# Revision: 0
# Processed by: cddbd v1.4PL0 Copyright (c) Steve Scherf et al.
# Submitted via: EasyCDDAExtractor 4.6.0.1
#
DISCID=0f109b13
DTITLE=The Bee Gees - 19 Greatest Hits
DYEAR=2001
DGENRE=Ballad
TTITLE0=How deep is your love
TTITLE1=Words
TTITLE2=Massachusetts
TTITLE3=You should be dancing
TTITLE4=More than a woman
TTITLE5=Stayin alive
TTITLE6=Night fever
TTITLE7=Tragedy
TTITLE8=I´ve gotta get a message to you
TTITLE9=Don't forget to remember
TTITLE10=Saved by the bell
TTITLE11=Run to me
TTITLE12=To love somebody
TTITLE13=World
TTITLE14=First of may
TTITLE15=Alone
TTITLE16=My lover's player
TTITLE17=I will
TTITLE18=Smoke and mirrors
EXTD=
EXTT0=
EXTT1=
EXTT2=
EXTT3=
EXTT4=
EXTT5=
EXTT6=
EXTT7=
EXTT8=
EXTT9=
EXTT10=
EXTT11=
EXTT12=
EXTT13=
EXTT14=
EXTT15=
EXTT16=
EXTT17=
EXTT18=
PLAYORDER=
